<svg width="56" height="56" viewBox="0 0 56 56" fill="none" xmlns="http://www.w3.org/2000/svg">
<circle cx="28" cy="28" r="24" fill="#F4EBFF" stroke="#F9F5FF" stroke-width="8"/>
<path d="M24.17 20C24.377 19.4149 24.7603 18.9084 25.2671 18.5502C25.774 18.1921 26.3794 17.9998 27 18H29C30.306 18 31.417 18.835 31.83 20H37C37.2652 20 37.5196 20.1054 37.7071 20.2929C37.8946 20.4804 38 20.7348 38 21V37C38 37.2652 37.8946 37.5196 37.7071 37.7071C37.5196 37.8946 37.2652 38 37 38H19C18.7348 38 18.4804 37.8946 18.2929 37.7071C18.1054 37.5196 18 37.2652 18 37V21C18 20.7348 18.1054 20.4804 18.2929 20.2929C18.4804 20.1054 18.7348 20 19 20H24.17ZM20 22V36H36V22H31.83C31.623 22.5851 31.2397 23.0916 30.7329 23.4498C30.226 23.8079 29.6206 24.0002 29 24H27C26.3794 24.0002 25.774 23.8079 25.2671 23.4498C24.7603 23.0916 24.377 22.5851 24.17 22H20ZM27 20C26.7348 20 26.4804 20.1054 26.2929 20.2929C26.1054 20.4804 26 20.7348 26 21C26 21.2652 26.1054 21.5196 26.2929 21.7071C26.4804 21.8946 26.7348 22 27 22H29C29.2652 22 29.5196 21.8946 29.7071 21.7071C29.8946 21.5196 30 21.2652 30 21C30 20.7348 29.8946 20.4804 29.7071 20.2929C29.5196 20.1054 29.2652 20 29 20H27ZM26 26L31 29L26 32V26Z" fill="#6B46FF"/>
</svg>
