<svg width="56" height="56" viewBox="0 0 56 56" fill="none" xmlns="http://www.w3.org/2000/svg">
<circle cx="28" cy="28" r="24" fill="#F4EBFF" stroke="#F9F5FF" stroke-width="8"/>
<path d="M28 17L36.217 18.826C36.674 18.928 37 19.333 37 19.802V29.789C37 31.795 35.997 33.669 34.328 34.781L28 39L21.672 34.781C20.002 33.668 19 31.795 19 29.79V19.802C19 19.333 19.326 18.928 19.783 18.826L28 17ZM28 19.049L21 20.604V29.789C21 31.126 21.668 32.375 22.781 33.117L28 36.597L33.219 33.117C34.332 32.375 35 31.127 35 29.79V20.604L28 19.05V19.049ZM32.452 24.222L33.867 25.636L27.503 32L23.26 27.757L24.674 26.343L27.502 29.171L32.452 24.221V24.222Z" fill="#6B46FF"/>
</svg>
