<svg width="36" height="36" viewBox="0 0 36 36" fill="none" xmlns="http://www.w3.org/2000/svg">
<path d="M35.34 13.5398C34.7213 11.0569 33.5481 9.18461 31.0491 9.18461H27.8269V12.9934C27.8269 15.9505 25.3198 18.4414 22.4592 18.4414H13.8773C11.5309 18.4414 9.58636 20.4503 9.58636 22.8047V30.9848C9.58636 33.315 11.6113 34.6811 13.8773 35.348C16.5933 36.1435 19.2048 36.2881 22.4592 35.348C24.6207 34.7212 26.7501 33.4597 26.7501 30.9848V27.7143H18.1763V26.6215H31.0491C33.5481 26.6215 34.4722 24.8778 35.34 22.2663C36.24 19.5744 36.1998 16.987 35.34 13.5398V13.5398ZM22.9975 29.8919C23.8895 29.8919 24.6127 30.6232 24.6127 31.5231C24.6127 32.4311 23.8895 33.1624 22.9975 33.1624C22.1136 33.1624 21.3824 32.4231 21.3824 31.5231C21.3905 30.6151 22.1136 29.8919 22.9975 29.8919ZM13.4836 17.3647H22.0654C24.452 17.3647 26.3564 15.396 26.3564 13.0014V4.81333C26.3564 2.48305 24.3957 0.739364 22.0654 0.345628C19.1887 -0.128463 16.0629 -0.104357 13.4836 0.353663C9.85153 0.996499 9.19262 2.33842 9.19262 4.82137V8.09179H17.7825V9.18461H5.97041C3.47138 9.18461 1.28573 10.6872 0.60272 13.5398C-0.184755 16.8102 -0.216897 18.8512 0.60272 22.2663C1.21341 24.8055 2.66783 26.6215 5.16686 26.6215H8.11587V22.7002C8.11587 19.8637 10.5667 17.3647 13.4836 17.3647ZM12.9452 5.90615C12.0532 5.90615 11.3301 5.17493 11.3301 4.27496C11.3381 3.36695 12.0532 2.63573 12.9452 2.63573C13.8291 2.63573 14.5603 3.37499 14.5603 4.27496C14.5603 5.17493 13.8371 5.90615 12.9452 5.90615V5.90615Z" fill="white"/>
</svg>
