<svg width="55" height="55" viewBox="0 0 55 55" fill="none" xmlns="http://www.w3.org/2000/svg">
<path d="M13.7498 33.2304C13.7498 33.8382 13.5084 34.4211 13.0786 34.8508C12.6489 35.2806 12.066 35.5221 11.4582 35.5221C10.8504 35.5221 10.2675 35.2806 9.83772 34.8508C9.40795 34.4211 9.1665 33.8382 9.1665 33.2304V22.9179C9.1665 22.3101 9.40795 21.7272 9.83772 21.2974C10.2675 20.8677 10.8504 20.6262 11.4582 20.6262C12.066 20.6262 12.6489 20.8677 13.0786 21.2974C13.5084 21.7272 13.7498 22.3101 13.7498 22.9179V33.2304Z" fill="#3DDB85"/>
<path d="M45.8333 33.2304C45.8333 33.8382 45.5919 34.4211 45.1621 34.8508C44.7323 35.2806 44.1495 35.5221 43.5417 35.5221C42.9339 35.5221 42.351 35.2806 41.9212 34.8508C41.4914 34.4211 41.25 33.8382 41.25 33.2304V22.9179C41.25 22.3101 41.4914 21.7272 41.9212 21.2974C42.351 20.8677 42.9339 20.6262 43.5417 20.6262C44.1495 20.6262 44.7323 20.8677 45.1621 21.2974C45.5919 21.7272 45.8333 22.3101 45.8333 22.9179V33.2304Z" fill="#3DDB85"/>
<path d="M25.2083 45.8334C25.2083 46.4412 24.9669 47.0241 24.5371 47.4539C24.1074 47.8836 23.5245 48.1251 22.9167 48.1251C22.3089 48.1251 21.726 47.8836 21.2962 47.4539C20.8664 47.0241 20.625 46.4412 20.625 45.8334V35.5209C20.625 34.9131 20.8664 34.3302 21.2962 33.9005C21.726 33.4707 22.3089 33.2292 22.9167 33.2292C23.5245 33.2292 24.1074 33.4707 24.5371 33.9005C24.9669 34.3302 25.2083 34.9131 25.2083 35.5209V45.8334Z" fill="#3DDB85"/>
<path d="M34.3748 45.8334C34.3748 46.4412 34.1334 47.0241 33.7036 47.4539C33.2739 47.8836 32.691 48.1251 32.0832 48.1251C31.4754 48.1251 30.8925 47.8836 30.4627 47.4539C30.0329 47.0241 29.7915 46.4412 29.7915 45.8334V35.5209C29.7915 34.9131 30.0329 34.3302 30.4627 33.9005C30.8925 33.4707 31.4754 33.2292 32.0832 33.2292C32.691 33.2292 33.2739 33.4707 33.7036 33.9005C34.1334 34.3302 34.3748 34.9131 34.3748 35.5209V45.8334Z" fill="#3DDB85"/>
<path d="M16.0415 20.6262V37.8126C16.0415 38.4204 16.2829 39.0033 16.7127 39.433C17.1425 39.8628 17.7254 40.1042 18.3332 40.1042H36.6665C37.2743 40.1042 37.8572 39.8628 38.287 39.433C38.7167 39.0033 38.9582 38.4204 38.9582 37.8126V20.6262H16.0415Z" fill="#3DDB85"/>
<path d="M27.4998 9.16675C20.6248 9.16675 16.4368 13.3433 16.0415 18.3334H38.9582C38.5617 13.3433 34.3748 9.16675 27.4998 9.16675ZM22.9165 15.5811C22.6126 15.5811 22.3212 15.4604 22.1063 15.2455C21.8914 15.0306 21.7707 14.7392 21.7707 14.4353C21.7707 14.1314 21.8914 13.8399 22.1063 13.6251C22.3212 13.4102 22.6126 13.2895 22.9165 13.2895C23.2204 13.2895 23.5118 13.4102 23.7267 13.6251C23.9416 13.8399 24.0623 14.1314 24.0623 14.4353C24.0623 14.7392 23.9416 15.0306 23.7267 15.2455C23.5118 15.4604 23.2204 15.5811 22.9165 15.5811ZM32.0832 15.5811C31.7793 15.5811 31.4878 15.4604 31.2729 15.2455C31.0581 15.0306 30.9373 14.7392 30.9373 14.4353C30.9373 14.1314 31.0581 13.8399 31.2729 13.6251C31.4878 13.4102 31.7793 13.2895 32.0832 13.2895C32.3871 13.2895 32.6785 13.4102 32.8934 13.6251C33.1083 13.8399 33.229 14.1314 33.229 14.4353C33.229 14.7392 33.1083 15.0306 32.8934 15.2455C32.6785 15.4604 32.3871 15.5811 32.0832 15.5811Z" fill="#3DDB85"/>
<path d="M34.3748 8.02075L32.4658 10.8842" stroke="#3DDB85" stroke-width="2" stroke-linecap="round"/>
<path d="M20.625 8.02075L22.1524 10.4064" stroke="#3DDB85" stroke-width="2" stroke-linecap="round"/>
</svg>
