<svg width="45" height="46" viewBox="0 0 45 46" fill="none" xmlns="http://www.w3.org/2000/svg">
<g clip-path="url(#clip0_1_4047)">
<path d="M31.4494 0.240305C31.3538 0.133374 27.9085 0.282515 24.9104 3.53828C21.9122 6.79123 22.3735 10.5226 22.441 10.6182C22.5085 10.7139 26.716 10.8631 29.4019 7.07826C32.0879 3.29346 31.5451 0.35005 31.4494 0.240305ZM40.7701 33.2566C40.6351 32.9865 34.231 29.7842 34.8273 23.6272C35.4235 17.4674 39.5382 15.7791 39.6029 15.5962C39.6676 15.4132 37.9238 13.3731 36.076 12.3404C34.7193 11.6123 33.2178 11.1951 31.6801 11.1191C31.3763 11.1107 30.3216 10.8518 28.1532 11.4455C26.7244 11.8367 23.5041 13.103 22.6182 13.1536C21.7294 13.2043 19.0857 11.6847 16.2422 11.2823C14.4225 10.9306 12.4932 11.651 11.1122 12.2053C9.73411 12.7569 7.11285 14.3271 5.2791 18.5002C3.44535 22.6705 4.40441 29.2777 5.09066 31.3319C5.77691 33.3833 6.84848 36.746 8.67098 39.1998C10.291 41.9687 12.4397 43.8906 13.3369 44.5435C14.2341 45.1963 16.7654 45.6297 18.5204 44.732C19.9322 43.8653 22.4804 43.3672 23.4872 43.4038C24.4913 43.4404 26.4713 43.8372 28.4991 44.9206C30.1051 45.4749 31.6238 45.2442 33.1454 44.6251C34.667 44.0032 36.8691 41.6451 39.4398 36.8642C40.4157 34.6411 40.8601 33.4396 40.7701 33.2566Z" fill="black"/>
<path d="M31.4494 0.240305C31.3538 0.133374 27.9085 0.282515 24.9104 3.53828C21.9122 6.79123 22.3735 10.5226 22.441 10.6182C22.5085 10.7139 26.716 10.8631 29.4019 7.07826C32.0879 3.29346 31.5451 0.35005 31.4494 0.240305ZM40.7701 33.2566C40.6351 32.9865 34.231 29.7842 34.8273 23.6272C35.4235 17.4674 39.5382 15.7791 39.6029 15.5962C39.6676 15.4132 37.9238 13.3731 36.076 12.3404C34.7193 11.6123 33.2178 11.1951 31.6801 11.1191C31.3763 11.1107 30.3216 10.8518 28.1532 11.4455C26.7244 11.8367 23.5041 13.103 22.6182 13.1536C21.7294 13.2043 19.0857 11.6847 16.2422 11.2823C14.4225 10.9306 12.4932 11.651 11.1122 12.2053C9.73411 12.7569 7.11285 14.3271 5.2791 18.5002C3.44535 22.6705 4.40441 29.2777 5.09066 31.3319C5.77691 33.3833 6.84848 36.746 8.67098 39.1998C10.291 41.9687 12.4397 43.8906 13.3369 44.5435C14.2341 45.1963 16.7654 45.6297 18.5204 44.732C19.9322 43.8653 22.4804 43.3672 23.4872 43.4038C24.4913 43.4404 26.4713 43.8372 28.4991 44.9206C30.1051 45.4749 31.6238 45.2442 33.1454 44.6251C34.667 44.0032 36.8691 41.6451 39.4398 36.8642C40.4157 34.6411 40.8601 33.4396 40.7701 33.2566Z" fill="black"/>
</g>
<defs>
<clipPath id="clip0_1_4047">
<rect width="45.0001" height="45.0236" fill="white" transform="translate(0 0.217773)"/>
</clipPath>
</defs>
</svg>
