<svg width="56" height="56" viewBox="0 0 56 56" fill="none" xmlns="http://www.w3.org/2000/svg">
<circle cx="28" cy="28" r="24" fill="#F4EBFF" stroke="#F9F5FF" stroke-width="8"/>
<path d="M29 37V39H27V37H19C18.7348 37 18.4804 36.8946 18.2929 36.7071C18.1054 36.5196 18 36.2652 18 36V20C18 19.7348 18.1054 19.4804 18.2929 19.2929C18.4804 19.1054 18.7348 19 19 19H25C25.5676 18.9993 26.1288 19.1198 26.6461 19.3532C27.1635 19.5867 27.625 19.9279 28 20.354C28.375 19.9279 28.8365 19.5867 29.3539 19.3532C29.8712 19.1198 30.4324 18.9993 31 19H37C37.2652 19 37.5196 19.1054 37.7071 19.2929C37.8946 19.4804 38 19.7348 38 20V36C38 36.2652 37.8946 36.5196 37.7071 36.7071C37.5196 36.8946 37.2652 37 37 37H29ZM36 35V21H31C30.4696 21 29.9609 21.2107 29.5858 21.5858C29.2107 21.9609 29 22.4696 29 23V35H36ZM27 35V23C27 22.4696 26.7893 21.9609 26.4142 21.5858C26.0391 21.2107 25.5304 21 25 21H20V35H27Z" fill="#6B46FF"/>
</svg>
