<svg width="44" height="38" viewBox="0 0 44 38" fill="none" xmlns="http://www.w3.org/2000/svg">
<path d="M27.3469 0.402686C27.3469 0.402686 37.0609 5.95871 39.6031 14.7852C41.8937 22.7581 40.0594 26.5632 40.0594 26.5632C41.2308 27.8403 42.1539 29.3248 42.7812 30.9405C43.4114 31.9786 43.7816 33.1537 43.8605 34.3657C43.9394 35.5777 43.7246 36.7908 43.2344 37.9019C43.2344 37.9019 43.0781 34.6503 38.2344 33.9765C33.7953 33.3511 32.1812 37.6753 23.7031 37.4658C19.0056 37.3762 14.4013 36.1384 10.2916 33.8601C6.18192 31.5818 2.69162 28.3323 0.125 24.3949C4.26719 26.6555 9.69375 30.1651 16.4516 29.6258C23.2094 29.0864 24.6203 27.0088 24.6203 27.0088C17.0242 20.9946 10.3005 13.9533 4.64219 6.0869C9.95469 10.5345 23.1141 19.386 22.8078 19.1609C17.9944 14.4551 13.5904 9.34752 9.64375 3.89357C9.64375 3.89357 29.3875 20.1349 30.9766 20.0317C31.6297 18.6857 35.0062 11.718 27.3453 0.401123L27.3469 0.402686Z" fill="url(#paint0_linear_1_4045)"/>
<defs>
<linearGradient id="paint0_linear_1_4045" x1="22.6875" y1="15.4105" x2="21.8606" y2="37.9207" gradientUnits="userSpaceOnUse">
<stop stop-color="#F88535"/>
<stop offset="1" stop-color="#FD2221"/>
</linearGradient>
</defs>
</svg>
