<svg width="36" height="36" viewBox="0 0 36 36" fill="none" xmlns="http://www.w3.org/2000/svg">
<path fill-rule="evenodd" clip-rule="evenodd" d="M18 0L35 9.64143V26.3587L18 36L1 26.3587V9.64143L18 0ZM18 9.10029C12.9445 9.10029 8.84615 13.0849 8.84615 18.0001C8.84615 22.9153 12.9445 26.8999 18 26.8999H18.4759C21.0299 26.8999 23.4793 25.9135 25.2852 24.1576L25.4633 23.9847L23.6138 22.1867L23.4359 22.3596C22.1204 23.6386 20.3363 24.3571 18.4759 24.3571H18C14.3889 24.3571 11.4615 21.5109 11.4615 18.0001C11.4615 14.4892 14.3889 11.6431 18 11.6431H18.4759C20.3363 11.6431 22.1204 12.3616 23.4359 13.6405L23.6138 13.8135L25.4633 12.0155L25.2852 11.8425C23.4793 10.0867 21.0299 9.10029 18.4759 9.10029H18Z" fill="white"/>
</svg>
