<svg width="36" height="50" viewBox="0 0 36 50" fill="none" xmlns="http://www.w3.org/2000/svg">
<path d="M11.6092 38.6521C11.6092 38.6521 9.7532 39.7612 12.9301 40.1365C16.7788 40.5877 18.7457 40.5231 22.9871 39.6981C22.9871 39.6981 24.1023 40.4166 25.6594 41.039C16.1516 45.2264 4.14114 40.7963 11.6092 38.6521Z" fill="#5382A1"/>
<path d="M10.4475 33.1877C10.4475 33.1877 8.36586 34.7713 11.5451 35.1091C15.6564 35.545 18.9032 35.5807 24.5214 34.469C24.5214 34.469 25.2985 35.2785 26.5204 35.7213C15.0247 39.1756 2.22069 35.9937 10.4475 33.1877Z" fill="#5382A1"/>
<path d="M20.2421 23.9185C22.5849 26.6901 19.6266 29.1844 19.6266 29.1844C19.6266 29.1844 25.5751 26.0287 22.8432 22.077C20.2917 18.392 18.3349 16.5608 28.9278 10.2478C28.9278 10.2478 12.3006 14.5151 20.2421 23.9183" fill="#E76F00"/>
<path d="M32.8169 42.6939C32.8169 42.6939 34.1904 43.8567 31.3042 44.7564C25.8161 46.465 8.46219 46.9809 3.64128 44.8245C1.90836 44.0499 5.1582 42.9748 6.18041 42.7491C7.24648 42.5115 7.85581 42.5559 7.85581 42.5559C5.92855 41.1606 -4.60117 45.2953 2.50728 46.4793C21.8929 49.7099 37.8452 45.0247 32.8169 42.6939Z" fill="#5382A1"/>
<path d="M12.5015 27.5259C12.5015 27.5259 3.67437 29.6806 9.37573 30.4628C11.783 30.794 16.5818 30.7192 21.0518 30.3342C24.705 30.0177 28.3732 29.3443 28.3732 29.3443C28.3732 29.3443 27.0851 29.9112 26.1531 30.5651C17.1891 32.9878 -0.127703 31.8608 4.85759 29.3826C9.07367 27.2884 12.5017 27.5259 12.5017 27.5259" fill="#5382A1"/>
<path d="M28.3369 36.6218C37.4494 31.7559 33.2361 27.0799 30.2954 27.7099C29.5745 27.864 29.2532 27.9975 29.2532 27.9975C29.2532 27.9975 29.5208 27.5669 30.0319 27.3805C35.8495 25.2786 40.3238 33.5795 28.1538 36.867C28.1538 36.8672 28.2949 36.7377 28.3369 36.6218Z" fill="#5382A1"/>
<path d="M22.8429 0.0536113C22.8429 0.0536113 27.8895 5.24147 18.0565 13.2185C10.1715 19.6176 16.2584 23.2662 18.0532 27.4348C13.4506 23.1675 10.0728 19.4108 12.3389 15.9146C15.6649 10.7821 24.879 8.29379 22.8429 0.0534668" fill="#E76F00"/>
<path d="M13.3969 49.8071C22.1436 50.3825 35.5751 49.4879 35.8932 45.2349C35.8932 45.2349 35.2818 46.8473 28.6645 48.1276C21.199 49.5713 11.9914 49.4028 6.53027 48.4775C6.53041 48.4775 7.64824 49.4284 13.397 49.8071" fill="#5382A1"/>
</svg>
