<svg width="56" height="56" viewBox="0 0 56 56" fill="none" xmlns="http://www.w3.org/2000/svg">
<circle cx="28" cy="28" r="24" fill="#F4EBFF" stroke="#F9F5FF" stroke-width="8"/>
<path d="M37 34H22C21.7348 34 21.4804 34.1054 21.2929 34.2929C21.1054 34.4804 21 34.7348 21 35C21 35.2652 21.1054 35.5196 21.2929 35.7071C21.4804 35.8946 21.7348 36 22 36H37V38H22C21.2044 38 20.4413 37.6839 19.8787 37.1213C19.3161 36.5587 19 35.7956 19 35V20C19 19.4696 19.2107 18.9609 19.5858 18.5858C19.9609 18.2107 20.4696 18 21 18H37V34ZM21 32.05C21.162 32.017 21.329 32 21.5 32H35V20H21V32.05ZM32 25H24V23H32V25Z" fill="#6B46FF"/>
</svg>
