<svg width="56" height="56" viewBox="0 0 56 56" fill="none" xmlns="http://www.w3.org/2000/svg">
<circle cx="28" cy="28" r="24" fill="#F4EBFF" stroke="#F9F5FF" stroke-width="8"/>
<path d="M34 32V30H35V20H22V30.035C22.1656 30.0115 22.3327 29.9998 22.5 30H24V32H22.5C22.1022 32 21.7206 32.158 21.4393 32.4393C21.158 32.7206 21 33.1022 21 33.5C21 33.8978 21.158 34.2794 21.4393 34.5607C21.7206 34.842 22.1022 35 22.5 35H26V37H22.5C21.5717 37 20.6815 36.6313 20.0251 35.9749C19.3687 35.3185 19 34.4283 19 33.5V21C19 20.2044 19.3161 19.4413 19.8787 18.8787C20.4413 18.3161 21.2044 18 22 18H36C36.2652 18 36.5196 18.1054 36.7071 18.2929C36.8946 18.4804 37 18.7348 37 19V36C37 36.2652 36.8946 36.5196 36.7071 36.7071C36.5196 36.8946 36.2652 37 36 37H32V35H35V32H34ZM23 21H25V23H23V21ZM23 24H25V26H23V24ZM30 33V39H28V33H25L29 28L33 33H30Z" fill="#6B46FF"/>
</svg>
