<svg width="42" height="43" viewBox="0 0 42 43" fill="none" xmlns="http://www.w3.org/2000/svg">
<g clip-path="url(#clip0_1_4027)">
<path d="M20.8223 0.131592C10.1858 0.131592 10.8499 4.76472 10.8499 4.76472L10.8617 9.56477L21.012 9.56477V11.0059L6.83022 11.0059C6.83022 11.0059 0.0239258 10.2305 0.0239258 21.0104C0.0239258 31.7906 5.96463 31.4083 5.96463 31.4083H9.51002V26.4058C9.51002 26.4058 9.31889 20.4387 15.3559 20.4387H25.4231C25.4231 20.4387 31.0792 20.5305 31.0792 14.948V5.71771C31.0792 5.71771 31.9382 0.131592 20.8223 0.131592ZM15.2255 3.35953C15.4653 3.35932 15.7029 3.40661 15.9245 3.49871C16.1461 3.59081 16.3475 3.7259 16.5171 3.89626C16.6867 4.06661 16.8212 4.26889 16.9129 4.49152C17.0046 4.71414 17.0517 4.95275 17.0515 5.19367C17.0517 5.43459 17.0046 5.67319 16.9129 5.89582C16.8212 6.11844 16.6867 6.32072 16.5171 6.49108C16.3475 6.66144 16.1461 6.79653 15.9245 6.88863C15.7029 6.98073 15.4653 7.02802 15.2255 7.0278C14.9856 7.02802 14.7481 6.98073 14.5264 6.88863C14.3048 6.79653 14.1034 6.66144 13.9338 6.49108C13.7642 6.32072 13.6297 6.11844 13.538 5.89582C13.4463 5.67319 13.3992 5.43459 13.3994 5.19367C13.3992 4.95275 13.4463 4.71414 13.538 4.49152C13.6297 4.26889 13.7642 4.06661 13.9338 3.89626C14.1034 3.7259 14.3048 3.59081 14.5264 3.49871C14.7481 3.40661 14.9856 3.35932 15.2255 3.35953V3.35953Z" fill="url(#paint0_linear_1_4027)"/>
<path d="M21.124 41.9976C31.7605 41.9976 31.0964 37.3645 31.0964 37.3645L31.0845 32.5646H20.9342V31.1235H35.1159C35.1159 31.1235 41.9222 31.8988 41.9222 21.1186C41.9222 10.3386 35.9815 10.7209 35.9815 10.7209H32.4361V15.7232C32.4361 15.7232 32.6272 21.6903 26.5902 21.6903H16.523C16.523 21.6903 10.8669 21.5985 10.8669 27.1812V36.4116C10.8669 36.4116 10.0081 41.9976 21.1238 41.9976H21.124ZM26.7208 38.77C26.4809 38.7702 26.2434 38.7229 26.0218 38.6308C25.8001 38.5387 25.5987 38.4036 25.4291 38.2333C25.2595 38.0629 25.125 37.8606 25.0333 37.638C24.9417 37.4154 24.8946 37.1768 24.8948 36.9358C24.8946 36.6949 24.9416 36.4563 25.0333 36.2336C25.125 36.011 25.2595 35.8087 25.4291 35.6383C25.5987 35.4679 25.8001 35.3328 26.0217 35.2407C26.2434 35.1486 26.4809 35.1013 26.7208 35.1015C26.9607 35.1013 27.1982 35.1486 27.4198 35.2407C27.6415 35.3328 27.8429 35.4679 28.0125 35.6383C28.1821 35.8086 28.3166 36.0109 28.4083 36.2335C28.5 36.4562 28.547 36.6948 28.5468 36.9357C28.547 37.1766 28.5 37.4152 28.4083 37.6378C28.3166 37.8605 28.1821 38.0627 28.0125 38.2331C27.8429 38.4034 27.6415 38.5385 27.4198 38.6306C27.1982 38.7227 26.9607 38.77 26.7208 38.7698V38.77Z" fill="url(#paint1_linear_1_4027)"/>
</g>
<defs>
<linearGradient id="paint0_linear_1_4027" x1="4.05037" y1="3.89719" x2="24.9052" y2="24.4526" gradientUnits="userSpaceOnUse">
<stop stop-color="#387EB8"/>
<stop offset="1" stop-color="#366994"/>
</linearGradient>
<linearGradient id="paint1_linear_1_4027" x1="16.7948" y1="17.156" x2="39.1859" y2="38.2294" gradientUnits="userSpaceOnUse">
<stop stop-color="#FFE052"/>
<stop offset="1" stop-color="#FFC331"/>
</linearGradient>
<clipPath id="clip0_1_4027">
<rect width="42" height="42.0219" fill="white" transform="translate(0 0.119629)"/>
</clipPath>
</defs>
</svg>
