<svg width="512" height="513" viewBox="0 0 512 513" fill="none" xmlns="http://www.w3.org/2000/svg">
<rect y="0.0634766" width="512" height="512" rx="102.4" fill="url(#paint0_linear_1452_1624)"/>
<g opacity="0.2">
<path d="M211.383 258.009H288.96C288.96 258.009 332.553 258.708 332.553 215.886V145.066C332.553 145.066 339.167 102.209 253.524 102.209C171.537 102.209 176.646 137.753 176.646 137.753L176.753 174.588H254.958V185.647H145.69C145.69 185.647 93.2251 179.697 93.2251 262.4C93.2251 345.104 139.022 342.164 139.022 342.164H166.339V303.788C166.339 303.788 164.851 258.009 211.383 258.009ZM210.38 155.122C206.648 155.122 203.069 153.64 200.43 151.001C197.791 148.362 196.309 144.783 196.309 141.051C196.309 137.32 197.791 133.741 200.43 131.102C203.069 128.463 206.648 126.981 210.38 126.981C214.111 126.981 217.69 128.463 220.329 131.102C222.968 133.741 224.45 137.32 224.45 141.051C224.45 144.783 222.968 148.362 220.329 151.001C217.69 153.64 214.111 155.122 210.38 155.122Z" fill="#FCFCFC"/>
<path d="M370.32 183.443H343.003V221.82C343.003 221.82 344.491 267.599 297.959 267.599H220.382C220.382 267.599 176.789 266.882 176.789 309.721V380.541C176.789 380.541 170.175 423.398 255.818 423.398C337.787 423.398 332.679 387.854 332.679 387.854L332.571 351.037H254.366V339.978H363.652C363.652 339.978 416.117 345.929 416.117 263.225C416.117 180.522 370.32 183.443 370.32 183.443ZM298.963 370.503C302.694 370.503 306.273 371.986 308.912 374.624C311.551 377.263 313.033 380.842 313.033 384.574C313.033 388.306 311.551 391.885 308.912 394.523C306.273 397.162 302.694 398.645 298.963 398.645C295.231 398.645 291.652 397.162 289.013 394.523C286.374 391.885 284.892 388.306 284.892 384.574C284.892 380.842 286.374 377.263 289.013 374.624C291.652 371.986 295.231 370.503 298.963 370.503Z" fill="#FCFCFC"/>
</g>
<path d="M211.383 249.861H288.96C288.96 249.861 332.553 250.56 332.553 207.739V136.919C332.553 136.919 339.167 94.0615 253.524 94.0615C171.537 94.0615 176.646 129.606 176.646 129.606L176.753 166.441H254.958V177.5H145.69C145.69 177.5 93.2251 171.549 93.2251 254.253C93.2251 336.956 139.022 334.017 139.022 334.017H166.339V295.64C166.339 295.64 164.851 249.861 211.383 249.861ZM210.38 146.975C206.648 146.975 203.069 145.492 200.43 142.853C197.791 140.215 196.309 136.636 196.309 132.904C196.309 129.172 197.791 125.593 200.43 122.954C203.069 120.316 206.648 118.833 210.38 118.833C214.111 118.833 217.69 120.316 220.329 122.954C222.968 125.593 224.45 129.172 224.45 132.904C224.45 136.636 222.968 140.215 220.329 142.853C217.69 145.492 214.111 146.975 210.38 146.975Z" fill="#FCFCFC"/>
<path d="M370.32 175.296H343.003V213.672C343.003 213.672 344.491 259.451 297.959 259.451H220.382C220.382 259.451 176.789 258.734 176.789 301.574V372.393C176.789 372.393 170.175 415.251 255.818 415.251C337.787 415.251 332.679 379.707 332.679 379.707L332.571 342.89H254.366V331.83H363.652C363.652 331.83 416.117 337.781 416.117 255.078C416.117 172.374 370.32 175.296 370.32 175.296ZM298.963 362.356C302.694 362.356 306.273 363.838 308.912 366.477C311.551 369.116 313.033 372.695 313.033 376.427C313.033 380.158 311.551 383.737 308.912 386.376C306.273 389.015 302.694 390.497 298.963 390.497C295.231 390.497 291.652 389.015 289.013 386.376C286.374 383.737 284.892 380.158 284.892 376.427C284.892 372.695 286.374 369.116 289.013 366.477C291.652 363.838 295.231 362.356 298.963 362.356Z" fill="#FCFCFC"/>
<defs>
<linearGradient id="paint0_linear_1452_1624" x1="481.278" y1="512.063" x2="-17.3659" y2="-87.2723" gradientUnits="userSpaceOnUse">
<stop stop-color="#6B46FF"/>
<stop offset="1" stop-color="#A28BFF"/>
</linearGradient>
</defs>
</svg>
