<svg width="45" height="45" viewBox="0 0 45 45" fill="none" xmlns="http://www.w3.org/2000/svg">
<path d="M22.5 25.979C24.4416 25.979 26.0156 24.405 26.0156 22.4634C26.0156 20.5218 24.4416 18.9478 22.5 18.9478C20.5584 18.9478 18.9844 20.5218 18.9844 22.4634C18.9844 24.405 20.5584 25.979 22.5 25.979Z" fill="#00D8FF"/>
<path d="M22.5 30.524C18.2744 30.6263 14.0594 30.0567 10.0125 28.8365C8.14306 28.2439 6.39947 27.3104 4.86984 26.0831C4.28615 25.6638 3.80007 25.1233 3.44495 24.4985C3.08983 23.8737 2.87408 23.1794 2.8125 22.4634C2.8125 20.1389 5.36625 17.8608 9.64406 16.3701C13.7992 15.0493 18.1405 14.4092 22.5 14.4745C26.8013 14.4144 31.0845 15.043 35.1872 16.3364C36.9876 16.9104 38.6721 17.7988 40.1625 18.9604C40.7362 19.3602 41.215 19.8812 41.565 20.4865C41.9149 21.0919 42.1274 21.7668 42.1875 22.4634C42.1875 24.8794 39.3328 27.3276 34.7344 28.8492C30.7658 30.0296 26.6398 30.5944 22.5 30.524ZM22.5 16.1564C18.3292 16.1006 14.1762 16.7092 10.1967 17.9592C6.25922 19.3331 4.49438 21.2119 4.49438 22.4592C4.49438 23.7642 6.39141 25.8159 10.5567 27.2404C14.4282 28.4018 18.4593 28.9424 22.5 28.8422C26.4606 28.913 30.4086 28.3771 34.207 27.2531C38.5312 25.8201 40.5 23.7656 40.5 22.4634C40.429 22.0165 40.2662 21.5892 40.0217 21.2085C39.7773 20.8278 39.4565 20.5019 39.0797 20.2514C37.7462 19.2208 36.2415 18.4334 34.6345 17.9254C30.7097 16.6932 26.6132 16.096 22.5 16.1564Z" fill="#00D8FF"/>
<path d="M14.5124 39.9979C13.8564 40.013 13.2081 39.8538 12.6337 39.5367C10.6199 38.3751 9.92244 35.0254 10.7676 30.5746C11.6994 26.3152 13.314 22.2346 15.5488 18.4907C17.6452 14.7348 20.3289 11.3384 23.4984 8.43041C24.895 7.15734 26.5062 6.1418 28.2571 5.43088C28.8904 5.13408 29.5813 4.98022 30.2807 4.98022C30.9801 4.98022 31.671 5.13408 32.3043 5.43088C34.3982 6.63745 35.0915 10.3331 34.1142 15.0764C33.1535 19.1046 31.5809 22.9618 29.451 26.5134C27.4285 30.225 24.8292 33.5918 21.7504 36.4879C20.3031 37.8109 18.6234 38.8546 16.7962 39.5662C16.0647 39.8377 15.2926 39.9837 14.5124 39.9979ZM17.0057 19.326C14.874 22.911 13.3265 26.8125 12.4213 30.884C11.6437 34.9832 12.3904 37.4484 13.476 38.0756C14.601 38.7267 17.332 38.1093 20.6479 35.2124C23.587 32.4378 26.0679 29.2151 27.9984 25.664C30.0388 22.2686 31.5473 18.5809 32.4717 14.729C33.3913 10.2642 32.5968 7.53042 31.469 6.88073C31.0463 6.71877 30.5946 6.64626 30.1424 6.66781C29.6903 6.68935 29.2475 6.80447 28.8421 7.00588C27.2835 7.64903 25.8507 8.56208 24.6093 9.70307C21.5812 12.4886 19.0176 15.74 17.0156 19.3345L17.0057 19.326Z" fill="#00D8FF"/>
<path d="M30.4834 40.0163C28.578 40.0163 26.1578 38.8632 23.6378 36.6961C20.4129 33.7617 17.6837 30.325 15.5561 26.5191C13.3493 22.8268 11.7475 18.8052 10.8114 14.6068C10.4054 12.7596 10.3302 10.8551 10.5892 8.98175C10.6491 8.28679 10.8607 7.61343 11.2091 7.00915C11.5576 6.40487 12.0343 5.88439 12.6058 5.48441C14.6969 4.27362 18.2448 5.51816 21.8659 8.73284C24.8761 11.5765 27.4324 14.8651 29.4456 18.4838C31.651 22.0899 33.2696 26.0234 34.2409 30.1374C34.6644 32.0523 34.7297 34.029 34.4336 35.9677C34.3631 36.6826 34.1389 37.3739 33.7763 37.9941C33.4136 38.6142 32.9212 39.1486 32.3327 39.5607C31.7676 39.8739 31.1293 40.0311 30.4834 40.0163ZM17.0116 25.6725C19.0526 29.3097 21.6596 32.5988 24.7347 35.4164C27.8973 38.1375 30.4061 38.7225 31.4847 38.0883C32.6097 37.4344 33.4394 34.7653 32.5844 30.4468C31.6476 26.519 30.0951 22.7643 27.9845 19.3219C26.0634 15.8585 23.6234 12.7095 20.7494 9.98441C17.3406 6.95816 14.5759 6.28175 13.4495 6.93425C13.0985 7.21955 12.8103 7.57455 12.6034 7.97683C12.3964 8.3791 12.2752 8.81992 12.2472 9.27144C12.0236 10.9422 12.0964 12.6393 12.4623 14.2847C13.3628 18.2998 14.899 22.1451 17.013 25.6753L17.0116 25.6725Z" fill="#00D8FF"/>
</svg>
