<svg width="45" height="56" viewBox="0 0 45 56" fill="none" xmlns="http://www.w3.org/2000/svg">
<path opacity="0.39" d="M30.6917 32.0405C30.7659 31.9846 30.8408 31.9293 30.9139 31.8717L31.0115 31.8041C31.7274 31.2286 32.3815 30.5815 32.9631 29.8731C34.3633 28.2011 35.3261 26.2318 35.789 24.1379H36.1051C38.7997 24.1379 40.9841 21.9766 40.9841 19.3102C40.9841 17.3309 39.7798 15.6306 38.0568 14.8856V7.63725C38.0515 4.48791 35.4726 1.93615 32.2898 1.93086H31.675C30.8839 1.93061 30.1552 2.20042 29.5786 2.6527C28.6805 1.07255 26.972 0.00352853 25.0101 0H16.3447C11.0927 0.00529279 6.83595 4.21697 6.8306 9.41373V14.8856C5.10776 15.6306 3.90316 17.3309 3.90316 19.3102C3.90316 21.9766 6.08757 24.1379 8.78231 24.1379H9.1188C9.5931 26.2124 10.5588 28.1611 11.9536 29.8152C12.5331 30.5257 13.1873 31.1729 13.9052 31.7462L14.0029 31.8041C14.097 31.8803 14.1931 31.9542 14.2892 32.0279C6.4908 33.0905 0.506777 39.4392 0 47.2331V47.3104V47.4842V47.7063V47.8124C0.269245 52.4146 4.1235 56.0077 8.78244 56.0001H18.5406H26.3471H36.1052C40.7749 56.0071 44.6333 52.397 44.8875 47.7836V47.7546V47.4843V47.3105V47.2525C44.3916 39.4822 38.4511 33.1422 30.6917 32.0405Z" fill="white"/>
<path opacity="0.39" d="M0 47.509H19.2318L21.3835 49.7982L21.2696 53.5392L16.4089 55.0668L9.99799 54.7067L3.24776 54.0689L1.12767 50.4264L0 47.509Z" fill="#D6BBFB"/>
<path opacity="0.4" d="M44.077 47.6272H24.845L22.6934 49.9163L22.8073 53.6572L27.6679 55.1848L34.079 54.8249L40.8292 54.187L42.9493 50.5445L44.077 47.6272Z" fill="#D6BBFB"/>
<path opacity="0.39" d="M8 14.4828L8.67923 5.39775L12.5001 1.93097L19.0008 1.00171H27.5289L29.5729 3.86196L29.1422 10.8628L26.6453 14.4828L21.7663 15.6271H8.5944" fill="#D6BBFB"/>
<path opacity="0.39" d="M29.3867 4.01193L29.5967 11.5642L33.2899 15.0978H35.579L37.2771 14.1737V7.9567L36.9376 4.26851L31.7581 3L29.8052 4.51223" fill="#D6BBFB"/>
<path d="M21.7562 16.4138H7.91921C7.38021 16.4138 6.94336 15.9816 6.94336 15.4483V9.41373C6.94871 4.21684 11.2053 0.00529279 16.4575 0H25.1228C28.0145 0.00529279 30.3575 2.32366 30.363 5.18492V7.89798C30.3629 12.6011 26.5096 16.4138 21.7562 16.4138ZM8.89494 14.4828H21.7562C25.4295 14.4774 28.4057 11.5325 28.4112 7.89798V5.18492C28.4112 3.38789 26.9388 1.93099 25.1228 1.93099H16.4575C12.2832 1.93628 8.90029 5.28346 8.89494 9.41373V14.4828Z" fill="#6B46FF"/>
<path d="M37.1926 16.4137H35.2409C32.8014 16.413 30.5473 15.1248 29.3274 13.0343C28.727 12.0071 28.4109 10.8417 28.4102 9.65511V5.18472C28.4578 3.3737 29.9556 1.93028 31.7865 1.93091H32.4013C35.5841 1.9362 38.1628 4.48783 38.1683 7.63717V15.4481C38.1683 15.9814 37.7316 16.4137 37.1926 16.4137ZM31.7865 3.8619C31.0184 3.86152 30.3882 4.46364 30.3619 5.2234V9.65511C30.357 10.5001 30.5828 11.3308 31.0156 12.0592C31.8846 13.5565 33.4959 14.4806 35.2409 14.4826H36.2167V7.63717C36.2167 5.55219 34.5086 3.8619 32.4013 3.8619H31.7865Z" fill="#6B46FF"/>
<path d="M36.2172 24.138H35.2414C34.7024 24.138 34.2656 23.7057 34.2656 23.1725V15.4483C34.2656 14.915 34.7024 14.4829 35.2414 14.4829H36.2172C38.9118 14.4829 41.0964 16.6443 41.0964 19.3103C41.0964 21.9766 38.9118 24.138 36.2172 24.138ZM36.2172 16.4139V22.207C37.834 22.207 39.1446 20.9101 39.1446 19.3103C39.1448 17.7108 37.8341 16.4139 36.2172 16.4139Z" fill="#6B46FF"/>
<path d="M9.87063 24.138H8.89477C6.20015 24.138 4.01562 21.9766 4.01562 19.3103C4.01562 16.6443 6.20015 14.4829 8.89477 14.4829H9.87063C10.4096 14.4829 10.8464 14.915 10.8464 15.4483V23.1725C10.8464 23.7057 10.4096 24.138 9.87063 24.138ZM8.89477 16.4139C7.27803 16.4139 5.96733 17.7108 5.96733 19.3103C5.96733 20.9101 7.27803 22.207 8.89477 22.207V16.4139Z" fill="#6B46FF"/>
<path d="M22.5558 29.1297C21.2609 29.1321 20.0183 28.6249 19.1015 27.7198C18.7188 27.3414 18.7188 26.7274 19.1015 26.349C19.4841 25.9703 20.1045 25.9703 20.4871 26.349C21.6428 27.4475 23.4689 27.4475 24.6246 26.349C25.0072 25.9703 25.6276 25.9703 26.0102 26.349C26.3929 26.7274 26.3929 27.3414 26.0102 27.7198C25.0933 28.6249 23.8507 29.1321 22.5558 29.1297Z" fill="#6B46FF"/>
<path d="M17.1902 18.3447C17.9987 18.3447 18.654 18.9932 18.654 19.7929C18.654 20.5929 17.9987 21.2413 17.1902 21.2413C16.3818 21.2413 15.7266 20.5929 15.7266 19.7929C15.7266 18.9932 16.3818 18.3447 17.1902 18.3447Z" fill="#6B46FF"/>
<path d="M27.9228 18.3447C28.7311 18.3447 29.3864 18.9932 29.3864 19.7929C29.3864 20.5929 28.731 21.2413 27.9228 21.2413C27.1143 21.2413 26.459 20.5929 26.459 19.7929C26.459 18.9932 27.1144 18.3447 27.9228 18.3447Z" fill="#6B46FF"/>
<path d="M18.6538 56H8.89559C4.23666 56.0077 0.382399 52.4146 0.113281 47.8123V47.7061V47.3103C0.113281 46.777 0.550136 46.3447 1.08914 46.3447H18.6538C21.3484 46.3447 23.5329 48.5061 23.5329 51.1723C23.5329 53.8387 21.3484 56 18.6538 56ZM2.12345 48.276C2.60909 51.6055 5.49577 54.0747 8.89559 54.069H18.6538C20.2705 54.069 21.5811 52.7722 21.5811 51.1724C21.5811 49.5728 20.2705 48.2761 18.6538 48.2761H2.12345V48.276Z" fill="#6B46FF"/>
<path d="M36.2174 56H26.4592C23.7646 56 21.5801 53.8387 21.5801 51.1723C21.5801 48.5062 23.7646 46.3447 26.4592 46.3447H44.024C44.5628 46.3447 44.9997 46.777 44.9997 47.3103V47.7834C44.7455 52.3969 40.887 56.007 36.2174 56ZM26.4592 48.276C24.8425 48.276 23.5319 49.5727 23.5319 51.1723C23.5319 52.7721 24.8425 54.0689 26.4592 54.0689H36.2174C39.6137 54.0698 42.4946 51.6017 42.9799 48.2758H26.4592V48.276Z" fill="#6B46FF"/>
<path d="M36.2185 56.0001H8.89559C4.23666 56.0078 0.382527 52.4146 0.113281 47.8124V47.4842V47.2332C0.625153 39.3625 6.72253 32.9646 14.6334 31.9974C14.9089 31.964 15.1857 32.0482 15.3947 32.2292C15.6052 32.4123 15.7259 32.676 15.7263 32.9533V36.6898L20.7518 32.9628C20.9482 32.8193 21.192 32.7539 21.435 32.7794C22.1815 32.8469 22.9326 32.8469 23.6792 32.7794C23.9221 32.7539 24.1659 32.8193 24.3623 32.9628L29.3878 36.6898V32.9533C29.3882 32.676 29.509 32.4123 29.7196 32.2292C29.9284 32.0482 30.2052 31.964 30.4807 31.9974C38.3985 32.9662 44.498 39.3743 45.0008 47.2526V47.4844V47.7547C44.7616 52.3793 40.8988 56.0061 36.2185 56.0001ZM13.7747 34.0829C7.28343 35.3804 2.48121 40.8286 2.06499 47.3684V47.774C2.31157 51.3244 5.29874 54.0776 8.89559 54.0691H36.2185C39.8331 54.0758 42.8271 51.2953 43.0492 47.7257V47.3877C42.6413 40.8407 37.8374 35.3823 31.3395 34.0829V38.6208C31.3395 39.154 30.9025 39.5863 30.3638 39.5863C30.1526 39.5863 29.9472 39.5186 29.7781 39.3932L23.533 34.7587C22.9156 34.7974 22.2963 34.7974 21.679 34.7587L15.3362 39.3932C14.905 39.7132 14.2934 39.6268 13.97 39.2C13.8434 39.0329 13.7749 38.8298 13.7749 38.6208V34.0829H13.7747Z" fill="#6B46FF"/>
<path d="M11.823 48.2758H1.08914C0.550136 48.2758 0.113281 47.8434 0.113281 47.3103C0.113281 46.777 0.550136 46.3447 1.08914 46.3447H10.8472V42.4826C10.8472 41.9496 11.2842 41.5173 11.823 41.5173C12.3619 41.5173 12.7988 41.9496 12.7988 42.4826V47.3104C12.7988 47.8434 12.3619 48.2758 11.823 48.2758Z" fill="#6B46FF"/>
<path d="M44.0242 48.276H33.2902C32.7513 48.276 32.3145 47.8435 32.3145 47.3104V42.4826C32.3145 41.9496 32.7513 41.5173 33.2902 41.5173C33.8291 41.5173 34.266 41.9496 34.266 42.4826V46.3447H44.0242C44.5629 46.3447 44.9999 46.777 44.9999 47.3103C44.9999 47.8435 44.5631 48.276 44.0242 48.276Z" fill="#6B46FF"/>
<path d="M14.7493 39.5862C14.5965 39.5853 14.4461 39.5489 14.3102 39.4799C13.982 39.3164 13.7746 38.984 13.7735 38.6207V32.953C13.7686 32.4682 14.1277 32.0554 14.6127 31.9876C15.3052 31.9 16.0028 31.858 16.7009 31.8621H17.6767C17.8041 31.8635 17.9301 31.8898 18.0475 31.9393C19.1324 32.3803 20.2763 32.6632 21.4433 32.7792C21.8405 32.8192 22.1728 33.0947 22.2825 33.4745C22.3919 33.8576 22.2524 34.2678 21.9313 34.5076L15.3348 39.3931C15.1658 39.5185 14.9604 39.5862 14.7493 39.5862ZM15.7251 33.7931V36.6895L18.9648 34.2854C18.4578 34.1505 17.9593 33.986 17.4719 33.7931H16.7009H15.7251Z" fill="#6B46FF"/>
<path d="M22.556 34.7587C22.1168 34.7587 21.668 34.7587 21.2387 34.7008C19.8965 34.5713 18.5811 34.2459 17.3353 33.7352C16.175 33.2455 15.0907 32.5954 14.1151 31.8042L14.0176 31.7462C13.2996 31.173 12.6452 30.5256 12.0659 29.8151C10.0358 27.4077 8.91465 24.3768 8.89453 21.2414V15.4483C8.89453 14.915 9.33151 14.4828 9.87039 14.4828H21.7558C25.429 14.4774 28.4054 11.5324 28.4107 7.89793C28.4107 7.36474 28.8477 6.93237 29.3866 6.93237C29.9255 6.93237 30.3624 7.36474 30.3624 7.89793V9.65526C30.3576 10.5002 30.5834 11.3309 31.0161 12.0593C31.8852 13.5567 33.4965 14.4808 35.2415 14.4828C35.7803 14.4828 36.2173 14.915 36.2173 15.4483V21.2414C36.2191 24.3932 35.1075 27.4464 33.075 29.8731C32.4936 30.5814 31.8395 31.2287 31.1236 31.8042L31.026 31.8718C30.047 32.643 28.963 33.2736 27.8058 33.7449C26.56 34.2555 25.2447 34.5809 23.9026 34.7103C23.444 34.7587 22.9951 34.7587 22.556 34.7587ZM15.13 30.2111L15.208 30.269C17.5841 32.1862 20.6252 33.1047 23.6781 32.8276C25.9576 32.6149 28.1231 31.7417 29.9038 30.3173L29.9819 30.2593C30.5593 29.7875 31.092 29.2638 31.5724 28.6952C33.321 26.5972 34.2735 23.9607 34.2656 21.2414V16.3464C32.1937 16.0493 30.3738 14.8288 29.3279 13.0345C29.2205 12.8414 29.1131 12.6483 29.0254 12.4553C28.8692 12.6933 28.7034 12.9251 28.5278 13.1504C26.9065 15.2215 24.4031 16.4278 21.7556 16.4139H10.8461V21.2414C10.8524 24.7134 12.4229 28.002 15.13 30.2111Z" fill="#6B46FF"/>
<path d="M30.3632 39.5861C30.152 39.5861 29.9466 39.5184 29.7776 39.393L23.1909 34.5076C22.8698 34.2676 22.7302 33.8575 22.8395 33.4744C22.9491 33.0947 23.2817 32.8194 23.6787 32.7792C24.8458 32.6632 25.9897 32.3803 27.0745 31.9393C27.1888 31.8909 27.3113 31.8647 27.4356 31.8621H28.4113C29.1097 31.8612 29.8074 31.9064 30.4996 31.9972C30.9846 32.065 31.3436 32.4781 31.3388 32.9627V38.6205C31.3376 38.9842 31.1302 39.3162 30.8021 39.4798C30.6663 39.5488 30.516 39.5853 30.3632 39.5861ZM26.1477 34.2854L29.3875 36.6896V33.7931H28.4116H27.6407C27.1531 33.986 26.6545 34.1505 26.1477 34.2854Z" fill="#6B46FF"/>
</svg>
