<svg width="46" height="58" viewBox="0 0 46 58" fill="none" xmlns="http://www.w3.org/2000/svg">
<g clip-path="url(#clip0_788_774)">
<path d="M2.5957 21.6557C2.5957 32.9095 11.7353 42.0325 23.0094 42.0325C34.2837 42.0325 43.4234 32.9095 43.4234 21.6557C43.4234 10.4019 34.2837 1.27881 23.0094 1.27881C11.7353 1.27881 2.5957 10.4019 2.5957 21.6557Z" fill="white"/>
<path d="M23.0096 42.0325C34.2838 42.0325 43.4234 32.9095 43.4234 21.6557C43.4234 10.4018 34.2838 1.27881 23.0096 1.27881C11.7353 1.27881 2.5957 10.4018 2.5957 21.6557C2.5957 32.9095 11.7353 42.0325 23.0096 42.0325Z" stroke="black" stroke-miterlimit="10"/>
<g opacity="0.4">
<g opacity="0.4">
<path opacity="0.4" d="M38.0025 36.3169L36.1967 37.0632C34.7483 37.9645 33.246 38.7765 31.6922 39.4483C31.6476 39.471 31.6036 39.4945 31.5588 39.5169C29.6208 40.4896 27.59 41.1326 25.5271 41.4732L23.9725 42.1157L22.7644 41.7499C17.8391 41.9237 12.8834 40.4385 8.6984 37.5741C8.6421 37.5355 8.59576 37.4923 8.55661 37.4463L8.07887 37.3016L2.26953 47.9145L10.8191 46.2734L14.7651 56.1204L22.7667 42.6628L31.0969 56.4486L34.0563 46.6015L44.2502 49.118L38.0025 36.3169Z" fill="#99ADBF"/>
</g>
</g>
<g opacity="0.39">
<path d="M38.4046 22.0571C38.4046 30.3959 31.6323 37.1558 23.2786 37.1558C14.9244 37.1558 8.15234 30.3958 8.15234 22.0571C8.15234 13.7181 14.9245 6.95825 23.2786 6.95825C31.6324 6.95825 38.4046 13.7181 38.4046 22.0571Z" fill="#D6BBFB"/>
</g>
<path d="M39.3416 26.2477C39.3613 26.1764 39.3812 26.1052 39.3997 26.0336C39.4009 26.0293 39.4022 26.025 39.4034 26.0207C39.4038 26.0191 39.4039 26.0177 39.4042 26.0161C40.1789 23.0572 40.1558 19.8729 39.2087 16.7942C39.2039 16.7785 39.1973 16.7638 39.192 16.7482C37.5371 11.4069 33.2916 7.10944 27.7292 5.50174C27.7063 5.49521 27.6838 5.48828 27.6611 5.48174C27.6115 5.46776 27.5615 5.45417 27.5119 5.44058C27.4379 5.42019 27.3641 5.3998 27.2898 5.38046C27.2862 5.37942 27.2825 5.37837 27.2786 5.37746C27.2773 5.37706 27.2761 5.37693 27.2748 5.37667C24.3102 4.6034 21.1195 4.6264 18.0351 5.57192C18.0201 5.57649 18.0059 5.58276 17.9913 5.58786C12.6297 7.24248 8.31731 11.4932 6.7135 17.0616C6.71075 17.0713 6.70774 17.0808 6.70499 17.0906C6.68771 17.151 6.67108 17.212 6.65445 17.2729C6.63717 17.3353 6.62002 17.3975 6.60352 17.4601C6.60182 17.4665 6.59986 17.473 6.59816 17.4797C6.59763 17.4819 6.59737 17.4841 6.59685 17.4863C5.8227 20.4449 5.846 23.6288 6.7931 26.7069C6.79768 26.7218 6.80397 26.7358 6.80907 26.7504C8.46696 32.1033 12.7264 36.4085 18.3061 38.0089C18.3148 38.0113 18.3231 38.014 18.3315 38.0165C18.3935 38.0341 18.4556 38.0509 18.5177 38.0678C18.579 38.0847 18.6404 38.1017 18.7019 38.1178C18.7087 38.1196 18.7155 38.1216 18.7225 38.1234C18.7247 38.124 18.727 38.1243 18.7293 38.1248C21.6931 38.8974 24.8825 38.8742 27.9659 37.9292C27.9816 37.9242 27.9964 37.918 28.0118 37.9126C33.3652 36.2599 37.6718 32.0193 39.281 26.4633C39.2866 26.4438 39.2926 26.4241 39.2983 26.4045C39.3132 26.3523 39.3273 26.2999 39.3416 26.2477ZM37.0067 25.6097C36.9945 25.6533 36.9829 25.697 36.9706 25.7405C36.966 25.7562 36.9612 25.7716 36.9567 25.7871C35.9762 29.1557 33.7795 32.1521 30.6235 34.0938C30.6133 34.1001 30.6044 34.1074 30.5942 34.1139C28.3658 35.477 25.7558 36.2505 23.0009 36.2505C22.9644 36.2505 22.9285 36.2529 22.8928 36.2559C21.6775 36.2467 20.4758 36.0847 19.3148 35.7798C19.2636 35.7665 19.2126 35.7522 19.1617 35.7384C19.1061 35.7232 19.0504 35.7083 18.995 35.6924C18.9933 35.6918 18.9915 35.6913 18.9899 35.6908C15.6018 34.7168 12.5867 32.5196 10.6349 29.3592C10.6285 29.3489 10.6212 29.3397 10.6145 29.3295C9.25001 27.1065 8.47534 24.5034 8.47429 21.7557C8.47429 21.7538 8.47455 21.7519 8.47455 21.7501C8.47455 21.5339 8.4794 21.3152 8.48895 21.0998C8.49039 21.0648 8.48974 21.0301 8.4883 20.9958C8.54041 20.0027 8.69503 19.022 8.9464 18.0688C8.9591 18.0206 8.97246 17.9727 8.98555 17.9248C9.93461 14.4706 12.1564 11.3893 15.3782 9.40691C15.3891 9.40011 15.399 9.39227 15.4096 9.38534C17.6376 8.02307 20.2468 7.24993 23.0008 7.24993C23.0364 7.24993 23.0716 7.24758 23.1064 7.2447C24.3197 7.25372 25.5195 7.41473 26.6786 7.71857C26.7401 7.73465 26.8014 7.75163 26.8624 7.76823C26.9081 7.78091 26.954 7.79319 26.9996 7.80626C27.0125 7.80992 27.0255 7.81384 27.0383 7.8175C30.4155 8.79543 33.4201 10.989 35.3666 14.1413C35.3732 14.152 35.3809 14.1617 35.388 14.1721C36.7526 16.3957 37.527 18.9998 37.5274 21.7485C37.5274 21.7491 37.5273 21.7496 37.5273 21.7502C37.5273 21.9664 37.5224 22.185 37.5129 22.4001C37.5114 22.435 37.5121 22.4694 37.5135 22.5034C37.4617 23.4929 37.3082 24.4699 37.0584 25.4199C37.0418 25.4837 37.0243 25.5465 37.0067 25.6097Z" fill="#6B46FF"/>
<path d="M45.8377 48.454L38.9518 36.5492C42.5713 32.6641 44.7894 27.4611 44.7894 21.7499C44.7896 9.75691 35.0148 0 23.0003 0C10.9854 0 1.21086 9.75691 1.21086 21.7499C1.21086 27.4611 3.42858 32.6641 7.04835 36.5489L0.162165 48.454C-0.0826622 48.8774 -0.0478366 49.4059 0.250146 49.7938C0.548128 50.1816 1.05087 50.3513 1.52377 50.2255L10.9378 47.7077L13.4602 57.1043C13.5871 57.5766 13.9865 57.926 14.472 57.9894C14.5249 57.9966 14.5775 57.9999 14.6299 57.9999C15.0585 57.9999 15.4605 57.7723 15.6783 57.3947L22.9929 44.724L30.3219 57.3956C30.5401 57.7726 30.9416 57.9997 31.3699 57.9997C31.4225 57.9997 31.4753 57.9963 31.5283 57.9893C32.0136 57.9258 32.4128 57.5761 32.5397 57.1043L35.0623 47.7075L44.4764 50.2253C44.9485 50.3516 45.4516 50.1814 45.75 49.7937C46.048 49.4059 46.0826 48.8774 45.8377 48.454ZM15.0416 53.6578L12.9632 45.9151C12.7901 45.2704 12.126 44.8877 11.4806 45.0609L3.72014 47.1363L8.84672 38.2729C12.1717 41.1148 16.3609 42.9757 20.9609 43.404L15.0416 53.6578ZM3.63164 21.7499C3.63164 11.0895 12.3204 2.41652 23.0002 2.41652C33.6798 2.41652 42.3684 11.0895 42.3684 21.7499C42.3684 32.4103 33.6799 41.0833 23.0002 41.0833C12.3204 41.0833 3.63164 32.4103 3.63164 21.7499ZM34.5195 45.0608C33.8733 44.8882 33.2102 45.2704 33.0371 45.9149L30.9575 53.661L25.0253 43.4048C29.6308 42.9791 33.8248 41.1172 37.1532 38.2727L42.2799 47.1359L34.5195 45.0608Z" fill="#6B46FF"/>
<path d="M27.6035 28.6904C26.1048 28.6904 24.665 27.8928 23.6533 26.502C22.7144 25.2112 22.1973 23.5158 22.1973 21.728C22.1973 19.9403 22.7143 18.2449 23.6533 16.9541C24.665 15.5634 26.1048 14.7659 27.6035 14.7659C29.1023 14.7659 30.5421 15.5634 31.5537 16.9541C32.4927 18.2449 33.0097 19.9403 33.0097 21.728C33.0097 23.5158 32.4927 25.2112 31.5537 26.502C30.5421 27.8928 29.1023 28.6904 27.6035 28.6904ZM27.6035 17.2581C26.0264 17.2581 24.694 19.3051 24.694 21.728C24.694 24.1511 26.0264 26.198 27.6035 26.198C29.1806 26.198 30.5131 24.1511 30.5131 21.728C30.5131 19.3051 29.1806 17.2581 27.6035 17.2581Z" fill="#6B46FF"/>
<path d="M22.0741 28.3813C22.1605 28.3152 22.2038 28.1824 22.2038 27.9831V26.7088C22.2038 26.3638 22.0111 26.1911 21.6253 26.1911H20.149V16.3936C20.149 15.4771 19.7033 15.0193 18.8124 15.0193H18.6526V15.0194C18.1338 15.0194 17.5552 15.1519 16.9169 15.4176L14.5826 16.3536C14.3832 16.4465 14.2832 16.5729 14.2832 16.7319C14.2832 16.865 14.4363 17.3561 14.7422 18.2057C14.8089 18.3916 14.9287 18.4842 15.1015 18.4842C15.2477 18.4842 15.4006 18.4514 15.5604 18.3847L17.4554 17.6679V26.1911H15.5604C15.1745 26.1911 14.9817 26.3636 14.9817 26.7088V27.9434C14.9817 28.3021 15.1745 28.4813 15.5604 28.4813H21.645C21.8446 28.4813 21.9878 28.448 22.0741 28.3813Z" fill="#6B46FF"/>
</g>
<defs>
<clipPath id="clip0_788_774">
<rect width="46" height="58" fill="white"/>
</clipPath>
</defs>
</svg>
